# xmcd
#
# Track frame offsets:
# 150
# 6381
# 17202
# 42090
# 64173
# 82328
# 101337
# 126102
# 142344
# 165957
# 194253
# 209612
#
# Disc length: 2990 seconds
#
#
# Revision: 0
# Processed by: cddbd v1.5.2PL0 Copyright (c) Steve Scherf et al.
# Submitted via: FreeRIP 2.951 
#
DISCID=ab0bac0c
DTITLE=Arautos do Rei - Vale a Pena Esperar - Play-back
DYEAR=1900
DGENRE=
TTITLE0=O Retorno
TTITLE1=02-Prefixo 2008
TTITLE2=Vale a Pena Esperar
TTITLE3=Vaso de Alebastros
TTITLE4=Eu vou Para Ceu
TTITLE5=Um Pouco Mais
TTITLE6=Maior Amor
TTITLE7=Santa Unção
TTITLE8=Se a Mão de Deus Tocar Em Mim
TTITLE9=Você Nunca Está Sozinho
TTITLE10=Daniel
TTITLE11=Vencer Por Você
EXTD=
EXTT0=
EXTT1=
EXTT2=
EXTT3=
EXTT4=
EXTT5=
EXTT6=
EXTT7=
EXTT8=
EXTT9=
EXTT10=
EXTT11=
PLAYORDER=
